<?xml version="1.0" standalone="no"?>
<!DOCTYPE svg PUBLIC "-//W3C//DTD SVG 20010904//EN"
 "http://www.w3.org/TR/2001/REC-SVG-20010904/DTD/svg10.dtd">
<svg version="1.0" xmlns="http://www.w3.org/2000/svg"
 width="800.000000pt" height="800.000000pt" viewBox="0 0 800.000000 800.000000"
 preserveAspectRatio="xMidYMid meet">
<metadata>
Created by potrace 1.14, written by Peter Selinger 2001-2017
</metadata>
<g transform="translate(0.000000,800.000000) scale(0.100000,-0.100000)"
fill="#000000" stroke="none">
<path d="M1039 7993 c0 -5 -2 -556 -3 -1226 l-2 -1217 -24 -23 c-14 -13 -68
-56 -120 -96 -52 -40 -96 -77 -98 -82 -2 -5 -10 -9 -17 -9 -7 0 -15 -3 -17 -8
-1 -4 -23 -23 -48 -42 -25 -19 -47 -37 -50 -40 -3 -3 -41 -33 -85 -68 -44 -34
-87 -68 -95 -75 -8 -7 -44 -35 -80 -63 -35 -27 -75 -58 -87 -68 l-23 -20 0
-2478 0 -2478 183 0 184 0 -2 2390 -2 2391 41 31 c23 18 48 38 56 45 8 7 51
41 95 76 114 90 387 306 405 320 8 7 45 35 81 64 l65 52 3 783 c1 431 2 788 2
793 0 6 0 57 0 115 -1 58 0 211 0 341 l1 236 672 -1 671 -1 3 -607 c2 -586 3
-607 20 -590 10 9 42 37 72 62 29 25 67 57 84 71 17 14 42 35 56 47 47 39 185
154 210 176 23 19 247 206 277 231 7 6 20 17 30 25 19 17 137 116 168 142 11
9 70 58 130 108 61 51 127 107 148 126 21 19 42 34 47 34 6 0 10 5 10 10 0 22
30 4 120 -73 17 -15 161 -130 215 -172 21 -16 43 -35 49 -40 6 -6 58 -49 116
-95 58 -46 110 -89 116 -95 6 -5 26 -21 44 -35 31 -23 63 -49 115 -92 130
-107 316 -258 320 -258 3 0 13 -8 23 -17 10 -10 30 -27 43 -38 28 -23 116 -94
139 -112 35 -28 145 -118 150 -123 3 -3 30 -24 60 -47 30 -23 64 -50 75 -60
26 -24 74 -62 115 -93 18 -14 38 -30 44 -35 6 -6 45 -38 86 -70 76 -61 114
-92 134 -110 6 -5 27 -22 46 -36 19 -15 45 -35 57 -45 28 -25 38 -33 183 -149
69 -55 127 -102 130 -105 3 -3 50 -41 105 -85 55 -43 102 -82 105 -85 4 -4
225 -183 280 -227 8 -6 58 -47 111 -90 119 -96 128 -104 260 -209 l106 -85 0
-2209 0 -2210 -136 0 c-75 -1 -1104 -2 -2288 -3 -1922 -2 -2152 -1 -2155 13
-3 12 -2 3064 1 3094 1 9 61 -69 61 -79 0 -3 36 -59 80 -125 44 -66 80 -124
80 -129 0 -5 3 -11 8 -13 4 -1 36 -48 71 -103 35 -55 68 -101 72 -103 5 -2 9
-8 9 -12 0 -8 168 -274 193 -305 4 -5 41 -62 82 -125 106 -165 211 -327 278
-428 31 -48 60 -94 64 -102 4 -8 9 -17 12 -20 12 -11 71 -101 71 -109 0 -31
82 -40 301 -32 26 1 63 51 166 229 12 20 26 42 32 49 6 7 11 16 11 21 0 4 8
17 17 28 10 10 25 33 33 49 8 17 18 35 23 40 4 6 44 69 89 140 44 72 91 146
103 165 34 52 399 641 416 669 8 14 17 30 22 35 23 32 137 219 137 225 0 4 8
15 18 24 17 16 18 -7 20 -554 1 -314 4 -575 7 -580 4 -5 1 -9 -5 -9 -6 0 -8
-5 -5 -10 4 -6 7 -307 8 -670 l2 -659 108 -3 c60 -2 114 0 120 4 6 4 18 3 27
-2 9 -5 22 -5 30 0 7 4 24 4 37 -1 12 -5 24 -5 25 -1 1 9 9 406 7 435 0 6 0
26 0 42 1 17 -1 55 -2 85 -2 30 1 61 6 67 5 7 6 13 1 13 -11 0 -10 242 0 259
4 6 4 11 -1 11 -4 0 -8 18 -8 40 0 22 4 40 9 40 5 0 4 6 -1 12 -5 7 -8 38 -6
68 3 69 3 106 0 148 -2 18 0 35 5 38 5 3 5 10 2 16 -10 16 -11 148 -1 148 5 0
5 5 1 12 -9 14 -9 142 0 156 3 6 3 13 -1 15 -5 3 -7 31 -5 64 2 32 2 67 2 78
-1 11 -1 27 -1 35 0 8 0 35 0 60 -1 54 -1 108 1 135 1 11 0 55 -2 98 -2 42 1
77 5 77 5 0 5 4 2 10 -6 9 -9 94 -5 115 1 6 1 15 0 20 -4 22 -2 126 3 131 3 3
2 18 -3 33 -4 16 -4 34 0 41 4 7 5 24 1 39 -5 14 -4 38 0 53 4 16 3 30 -1 33
-5 3 -5 19 0 35 5 17 8 32 8 35 -10 51 -13 95 -6 95 5 0 6 5 3 11 -7 10 -7 45
-2 192 1 37 -1 67 -4 67 -4 0 -4 15 0 33 4 17 4 46 1 63 l-5 30 -160 0 -160 0
-94 -151 c-52 -82 -113 -179 -136 -215 -23 -36 -75 -119 -115 -185 -41 -66
-80 -126 -87 -133 -7 -7 -13 -18 -13 -23 0 -6 -11 -25 -25 -43 -14 -18 -25
-36 -25 -40 0 -4 -5 -12 -10 -19 -14 -16 -210 -328 -210 -333 0 -3 -5 -10 -10
-17 -21 -24 -90 -138 -90 -147 0 -6 -4 -10 -10 -10 -5 0 -10 -5 -10 -10 0 -6
-8 -23 -19 -38 -28 -41 -101 -155 -169 -267 -34 -55 -65 -105 -70 -111 -5 -5
-15 -21 -22 -35 -7 -13 -33 -55 -58 -94 -24 -38 -51 -81 -59 -94 -14 -23 -17
-19 -125 145 -61 93 -136 207 -167 254 -31 46 -58 89 -61 95 -3 5 -58 90 -122
188 -65 98 -118 182 -118 187 0 4 -4 10 -9 12 -10 3 -111 157 -142 216 -7 12
-16 22 -21 22 -4 0 -8 5 -8 11 0 11 -79 129 -93 140 -5 3 -9 10 -10 15 0 5
-44 74 -96 154 -53 80 -100 153 -106 163 -26 45 -229 353 -236 357 -6 4 -302
5 -319 1 -3 0 -5 -468 -5 -1039 0 -596 -3 -1042 -8 -1050 -5 -6 -6 -12 -1 -12
5 0 8 -73 6 -162 -1 -90 -2 -170 -2 -178 0 -8 1 -105 3 -215 1 -110 -1 -208
-6 -217 -4 -10 -4 -18 0 -18 10 0 9 -303 -1 -318 -4 -7 -4 -12 1 -12 4 0 7
-30 5 -67 -1 -38 -2 -72 -2 -78 1 -61 1 -146 1 -170 -1 -45 -1 -137 0 -160 0
-11 0 -80 0 -152 -1 -73 -1 -139 -1 -145 0 -7 1 -47 3 -88 l2 -75 2640 0
c1452 -1 2646 1 2653 3 18 6 18 4948 -1 4966 -6 6 -70 59 -142 116 -162 131
-145 116 -244 197 -46 37 -104 84 -130 103 -25 19 -58 47 -73 62 -16 15 -28
24 -28 20 0 -4 -4 -2 -8 4 -4 5 -41 37 -82 69 -41 33 -77 62 -80 65 -3 3 -95
77 -205 165 -110 88 -202 162 -205 165 -3 3 -41 34 -85 69 -44 34 -89 70 -100
80 -11 9 -65 52 -120 96 -55 44 -109 87 -120 97 -11 9 -81 65 -155 125 -74 60
-144 117 -155 126 -11 9 -96 78 -190 153 -153 122 -209 167 -265 214 -36 30
-56 46 -125 100 -39 30 -75 59 -81 65 -6 5 -26 21 -44 35 -18 14 -42 33 -54
43 -11 10 -36 31 -55 45 -19 15 -43 35 -55 44 -12 10 -64 52 -116 94 -52 42
-106 86 -120 97 -14 12 -46 38 -70 57 -57 44 -61 47 -146 117 -40 32 -86 69
-104 83 -18 14 -37 30 -44 35 -22 21 -261 211 -274 219 -8 5 -40 -16 -90 -59
-42 -37 -88 -77 -102 -89 -124 -106 -156 -133 -170 -146 -18 -17 -96 -84 -220
-190 -47 -40 -101 -86 -121 -104 -19 -17 -60 -51 -89 -76 -30 -25 -67 -57 -84
-72 -16 -16 -30 -28 -31 -28 -1 0 -1 181 0 403 0 221 -1 408 -3 415 -3 9 -220
12 -1038 12 -569 0 -1034 -3 -1035 -7z"/>
</g>
</svg>
