<?xml version="1.0" encoding="UTF-8" standalone="no"?>
<svg
   version="1.0"
   width="566.81213pt"
   height="518.55133pt"
   viewBox="0 0 566.81213 518.55133"
   preserveAspectRatio="xMidYMid"
   id="svg50"
   sodipodi:docname="logo.svg"
   inkscape:version="1.2.1 (9c6d41e410, 2022-07-14)"
   xmlns:inkscape="http://www.inkscape.org/namespaces/inkscape"
   xmlns:sodipodi="http://sodipodi.sourceforge.net/DTD/sodipodi-0.dtd"
   xmlns="http://www.w3.org/2000/svg"
   xmlns:svg="http://www.w3.org/2000/svg">
  <defs
     id="defs54" />
  <sodipodi:namedview
     id="namedview52"
     pagecolor="#ffffff"
     bordercolor="#000000"
     borderopacity="0.25"
     inkscape:showpageshadow="2"
     inkscape:pageopacity="0.0"
     inkscape:pagecheckerboard="0"
     inkscape:deskcolor="#d1d1d1"
     inkscape:document-units="pt"
     showgrid="false"
     inkscape:zoom="0.7835707"
     inkscape:cx="354.148"
     inkscape:cy="504.74067"
     inkscape:window-width="2560"
     inkscape:window-height="1361"
     inkscape:window-x="-9"
     inkscape:window-y="-9"
     inkscape:window-maximized="1"
     inkscape:current-layer="g48" />
  <g
     transform="matrix(0.1,0,0,-0.1,-209.98858,870.35133)"
     fill="#000000"
     stroke="none"
     id="g48">
    <path
       d="m 4750,8699 c -80,-3 -155,-9 -165,-12 -11,-4 -42,-9 -70,-13 -100,-12 -288,-55 -410,-94 -55,-17 -113,-35 -130,-40 -129,-37 -496,-221 -615,-309 -41,-30 -100,-73 -130,-95 -223,-163 -439,-378 -581,-576 -29,-41 -56,-77 -59,-80 -12,-11 -80,-121 -139,-225 -155,-274 -256,-564 -318,-910 -31,-172 -43,-543 -24,-702 41,-330 111,-586 245,-887 44,-100 196,-356 270,-456 119,-160 269,-331 383,-434 l 108,-99 5,571 5,570 130,127 c 300,293 1261,1255 1313,1313 31,35 73,72 93,83 49,24 141,25 185,1 29,-16 836,-803 1154,-1124 74,-76 143,-138 152,-138 16,0 17,38 20,528 l 3,527 24,48 c 32,65 74,105 151,141 108,51 233,40 322,-27 50,-38 103,-112 118,-165 6,-24 10,-325 10,-842 0,-852 -1,-861 -49,-1072 -47,-206 -151,-440 -280,-631 -36,-54 -75,-112 -85,-129 l -19,-30 41,21 c 42,22 262,175 297,208 11,10 57,49 102,86 142,118 370,374 489,552 110,163 138,213 229,410 82,177 109,254 158,445 55,211 75,356 83,595 11,309 -22,541 -129,922 -21,74 -110,290 -164,396 -307,613 -883,1124 -1548,1375 -207,78 -475,140 -723,167 -88,10 -279,11 -452,4 z m 790,-1021 c 105,-47 209,-188 210,-282 0,-45 14,-46 60,-7 62,53 99,70 172,80 182,25 332,-52 415,-212 l 38,-72 3,-322 3,-323 h -40 -41 v 293 c 0,332 -4,355 -68,440 -73,97 -189,135 -322,107 -121,-26 -195,-97 -210,-202 -5,-35 -10,-375 -10,-755 0,-450 -3,-693 -10,-693 -14,0 -49,31 -63,55 -9,15 -13,238 -17,840 l -5,820 -22,42 c -28,51 -95,108 -154,128 -53,19 -154,21 -206,5 -58,-19 -147,-79 -174,-119 l -24,-35 -3,-523 c -1,-288 -6,-523 -10,-523 -4,0 -24,16 -44,36 l -38,35 v 273 c 0,315 -7,355 -67,405 -54,44 -161,81 -237,81 -81,0 -187,-37 -234,-82 -60,-58 -82,-115 -82,-213 0,-82 -1,-85 -22,-85 -61,1 -64,5 -57,88 9,124 34,188 98,249 30,29 79,65 110,81 52,25 65,27 176,27 111,0 125,-2 182,-28 33,-16 74,-42 89,-58 15,-16 31,-29 36,-29 4,0 8,42 9,93 1,177 7,195 78,276 66,74 89,91 176,123 74,27 229,20 305,-14 z M 4379,6751 c 87,-45 132,-119 133,-215 0,-43 -6,-75 -20,-102 -17,-33 -602,-620 -1492,-1497 -101,-99 -130,-119 -202,-137 -58,-15 -150,7 -211,49 -53,36 -99,122 -105,195 -7,81 25,131 173,277 201,197 1295,1290 1347,1345 26,28 76,65 110,83 59,31 68,32 143,29 57,-3 92,-11 124,-27 z"
       id="path2"
       style="fill:#ffffff" />
    <path
       d="m 4140,4720 v -580 h 635 635 v 580 580 h -635 -635 z m 564,424 c 3,-26 6,-114 6,-195 v -149 h -231 -231 l 4,168 c 3,92 10,179 16,195 l 12,27 h 208 209 z m 568,29 c 16,-14 18,-34 18,-195 v -178 l -232,2 -233,3 3,180 c 1,99 5,186 7,193 3,9 55,12 211,12 179,0 210,-2 226,-17 z m -564,-688 c 2,-162 0,-204 -12,-220 -13,-19 -29,-20 -215,-23 l -200,-3 -17,26 c -15,22 -16,49 -12,213 2,104 8,194 12,200 6,9 62,12 224,10 l 217,-3 z m 566,189 c 13,-13 16,-45 16,-199 0,-159 -2,-186 -17,-204 -18,-21 -24,-22 -228,-19 l -210,3 -3,218 -2,217 h 214 c 182,0 217,-2 230,-16 z"
       id="path4"
       style="fill:#ffffff" />
  </g>
</svg>
