<?xml version="1.0" encoding="UTF-8"?>
<svg id="Layer_2" data-name="Layer 2" xmlns="http://www.w3.org/2000/svg" viewBox="0 0 607.48 216.55">
  <defs>
    <style>
      .cls-1 {
        fill: #ee2e3e;
      }

      .cls-2 {
        fill: #231f20;
      }
    </style>
  </defs>
  <g id="Layer_1-2" data-name="Layer 1">
    <g>
      <path class="cls-2" d="m237.58,115.46l-9.53-17.52c-2.92-5.5-3.78-8.68-3.78-8.68h-.34s.43,3.09.43,9.1v29.46h-7.9v-50.59h9.19l12.03,23.36c1.97,3.87,2.58,6.18,2.58,6.18h.34s.52-2.32,2.58-6.18l11.94-23.36h8.85v50.59h-7.99v-29.46c0-6.01.51-9.1.51-9.1h-.34s-.86,3.18-3.87,8.68l-9.45,17.52h-5.24Z"/>
      <path class="cls-2" d="m282.17,70.28c3.01,0,5.41,2.06,5.41,5.15,0,2.92-2.41,5.15-5.41,5.15-2.75,0-5.15-2.23-5.15-5.15,0-3.09,2.41-5.15,5.15-5.15Zm3.95,17.87v39.68h-7.73v-39.68h7.73Z"/>
      <path class="cls-2" d="m301.06,116.83c.6,4.55,3.87,6.53,8.59,6.53s7.9-1.72,7.9-5.33c0-3.26-1.46-5.07-6.18-6.27l-5.84-1.37c-7.22-1.72-9.96-5.41-9.96-11.25,0-8.93,7.39-11.94,14.95-11.94,8.33,0,13.49,3.01,14.26,10.74l-7.56.86c-.26-3.95-2.66-5.75-7.22-5.75s-6.96,1.98-6.96,5.33c0,2.84,1.12,4.64,5.41,5.58l5.5,1.29c7.04,1.72,11,4.98,11,11.94,0,8.5-6.7,11.68-15.38,11.68s-14.26-2.75-15.38-9.96l6.87-2.06Z"/>
      <path class="cls-2" d="m338.17,116.83c.6,4.55,3.87,6.53,8.59,6.53s7.9-1.72,7.9-5.33c0-3.26-1.46-5.07-6.18-6.27l-5.84-1.37c-7.22-1.72-9.96-5.41-9.96-11.25,0-8.93,7.39-11.94,14.95-11.94,8.33,0,13.49,3.01,14.26,10.74l-7.56.86c-.26-3.95-2.66-5.75-7.21-5.75s-6.96,1.98-6.96,5.33c0,2.84,1.12,4.64,5.41,5.58l5.5,1.29c7.05,1.72,11,4.98,11,11.94,0,8.5-6.7,11.68-15.38,11.68s-14.26-2.75-15.38-9.96l6.87-2.06Z"/>
      <path class="cls-2" d="m369.7,107.73c0-13.49,7.13-20.53,18.04-20.53s18.13,7.04,18.13,20.53-7.13,21.13-18.13,21.13-18.04-7.56-18.04-21.13Zm7.64.09c0,9.96,3.52,14.95,10.39,14.95s10.48-4.98,10.48-14.95-3.61-14.35-10.48-14.35-10.39,4.64-10.39,14.35Z"/>
      <path class="cls-2" d="m438.94,120.61c-1.89,5.84-5.93,8.25-12.2,8.25-7.21,0-12.02-3.69-12.02-13.14v-27.57h7.73v26.37c0,5.84,2.23,8.59,7.13,8.59,4.29,0,9.19-3.87,9.19-11.51v-23.45h7.73v39.68h-6.61l-.94-7.22Z"/>
      <path class="cls-2" d="m480.69,95.96c-.95-.17-2.23-.34-3.52-.34-5.58,0-11,4.38-11,12.11v20.1h-7.73v-39.68h6.53l.94,10.74c1.55-7.13,6.53-12.03,15.38-11.6l-.6,8.68Z"/>
      <path class="cls-2" d="m494.48,70.28c3.01,0,5.41,2.06,5.41,5.15,0,2.92-2.4,5.15-5.41,5.15-2.75,0-5.15-2.23-5.15-5.15,0-3.09,2.4-5.15,5.15-5.15Zm3.95,17.87v39.68h-7.73v-39.68h7.73Z"/>
      <path class="cls-2" d="m224.87,199.11v-43.72h-14.69v-6.87h37.45v6.87h-14.77v43.72h-7.99Z"/>
      <path class="cls-2" d="m273.49,187.6l6.79,1.8c-1.63,7.99-8.33,10.74-15.89,10.74-10.57,0-17.7-7.3-17.7-20.53s7.04-21.13,18.12-21.13c10.22,0,15.72,7.04,15.72,16.92,0,2.23-.34,4.29-.77,5.5h-25.6c.34,7.73,3.95,13.14,10.65,13.14,4.38,0,7.3-1.72,8.68-6.44Zm-.6-12.28c.09-.6.09-1.12.09-1.63,0-5.07-3.26-9.11-8.59-9.11-5.67,0-9.28,3.87-10.05,10.74h18.55Z"/>
      <path class="cls-2" d="m296.08,167.07c2.15-5.93,6.7-8.59,12.71-8.59,6.53,0,12.02,3.61,12.02,12.28v28.35h-7.73v-26.03c0-4.9-2.23-7.9-6.96-7.9s-9.36,2.58-9.36,11.17v22.76h-7.73v-39.68h6.1l.94,7.64Z"/>
      <path class="cls-2" d="m359.31,189.75c0,3.01,1.37,3.69,2.92,3.69.94,0,1.63-.17,2.23-.43v6.01c-1.12.43-2.49.69-4.21.69-4.55,0-7.47-1.89-8.16-6.36-2.06,4.98-6.7,6.79-11.77,6.79-6.96,0-11.85-3.95-11.85-10.74,0-8.76,6.79-13.83,23.02-13.06v-4.9c0-4.9-2.92-6.79-7.13-6.79s-6.87,2.23-7.22,6.36l-7.39-1.12c.6-8.42,7.99-11.42,15.29-11.42,7.73,0,14.26,3.09,14.26,12.2v19.07Zm-7.82-8.33c-10.65-.26-15.29,2.15-15.29,7.13,0,3.26,2.15,5.76,6.36,5.76s8.93-2.49,8.93-7.13v-5.75Z"/>
      <path class="cls-2" d="m378.38,167.07c2.15-5.93,6.7-8.59,12.71-8.59,6.53,0,12.02,3.61,12.02,12.28v28.35h-7.73v-26.03c0-4.9-2.23-7.9-6.96-7.9s-9.36,2.58-9.36,11.17v22.76h-7.73v-39.68h6.1l.94,7.64Z"/>
      <path class="cls-2" d="m435.24,197.82c-2.58,1.55-5.93,2.32-9.62,2.32-7.13,0-11.43-3.78-11.43-11.17v-23.36h-5.75v-6.18h5.75v-8.42l7.82-.95v9.36h11.77v6.18h-11.85v21.82c0,4.3,1.98,6.1,5.24,6.1,2.58,0,4.38-.69,6.61-2.15l1.46,6.44Z"/>
      <path class="cls-2" d="m458.52,199.11v-50.59h7.9v21.47h24.14v-21.47h7.9v50.59h-7.9v-22.25h-24.14v22.25h-7.9Z"/>
      <path class="cls-2" d="m534.72,187.6l6.78,1.8c-1.63,7.99-8.33,10.74-15.89,10.74-10.56,0-17.69-7.3-17.69-20.53s7.04-21.13,18.12-21.13c10.22,0,15.72,7.04,15.72,16.92,0,2.23-.34,4.29-.77,5.5h-25.6c.34,7.73,3.95,13.14,10.65,13.14,4.38,0,7.3-1.72,8.68-6.44Zm-.6-12.28c.09-.6.09-1.12.09-1.63,0-5.07-3.26-9.11-8.59-9.11-5.67,0-9.28,3.87-10.05,10.74h18.55Z"/>
      <path class="cls-2" d="m563.67,199.11c-2.06.51-3.44.69-4.81.69-4.98,0-9.1-2.66-9.1-8.59v-49.48h7.73v47.85c0,2.49,1.46,3.52,3.52,3.52,1.12,0,1.89-.17,2.75-.43l-.09,6.44Z"/>
      <path class="cls-2" d="m579.13,216.55h-7.73v-57.12h6.36l.94,7.64c2.32-6.44,8.16-8.59,13.14-8.59,9.71,0,15.63,7.04,15.63,19.84,0,12.11-6.18,21.82-17.18,21.82-6.1,0-9.79-2.83-11.17-6.27v22.68Zm0-32.81c0,7.64,5.15,10.57,9.62,10.57,5.93,0,10.82-4.81,10.82-15.29,0-9.53-3.86-14.17-9.96-14.17-5.67,0-10.48,4.21-10.48,11.6v7.3Z"/>
    </g>
    <polygon class="cls-1" points="92.85 1.4 70.4 20.75 70.4 0 18.66 0 18.56 61.23 0 75.89 0 199.49 0 199.53 9.16 199.53 9.05 80.28 27.6 65.62 27.7 9.05 61.35 9.05 61.35 39.29 92.85 12.88 176 80.12 176 190.34 61.72 190.44 61.77 112.46 89.39 154.96 96.86 154.96 123.37 112.41 123.56 175.07 132.36 175.07 132.43 95.62 124.33 95.62 93.22 145.22 60.82 95.67 52.73 95.67 52.67 199.49 185.05 199.39 185.05 75.71 92.85 1.4"/>
  </g>
</svg>