<?xml version="1.0" encoding="UTF-8" standalone="no"?>
<!-- Created with Inkscape (http://www.inkscape.org/) -->

<svg
   version="1.1"
   id="svg9"
   width="816"
   height="294.66666"
   viewBox="0 0 816 294.66666"
   xmlns="http://www.w3.org/2000/svg"
   xmlns:svg="http://www.w3.org/2000/svg">
  <defs
     id="defs13">
    <clipPath
       clipPathUnits="userSpaceOnUse"
       id="clipPath193">
      <path
         d="M 0,221 H 612 V 0 H 0 Z"
         id="path191" />
    </clipPath>
  </defs>
  <g
     id="g185"
     transform="matrix(1.3333333,0,0,-1.3333333,0,294.66667)">
    <g
       id="g187">
      <g
         id="g189"
         clip-path="url(#clipPath193)">
        <g
           id="g195"
           transform="translate(240.1046,103.7089)">
          <path
             d="m 0,0 -9.534,17.523 c -2.921,5.498 -3.78,8.676 -3.78,8.676 h -0.343 c 0,0 0.429,-3.093 0.429,-9.105 v -29.463 h -7.903 v 50.594 h 9.191 L 0.087,14.86 C 2.062,10.995 2.663,8.676 2.663,8.676 h 0.344 c 0,0 0.516,2.319 2.577,6.184 l 11.939,23.365 h 8.848 v -50.594 h -7.988 v 29.463 c 0,6.012 0.515,9.105 0.515,9.105 h -0.344 c 0,0 -0.858,-3.178 -3.865,-8.676 L 5.24,0 Z"
             style="fill:#ffffff;fill-opacity:1;fill-rule:nonzero;stroke:none"
             id="path197" />
        </g>
        <path
           d="m 288.641,91.34 h -7.731 v 39.685 h 7.731 z m -3.951,57.551 c 3.006,0 5.411,-2.062 5.411,-5.153 0,-2.921 -2.405,-5.155 -5.411,-5.155 -2.749,0 -5.154,2.234 -5.154,5.155 0,3.091 2.405,5.153 5.154,5.153"
           style="fill:#ffffff;fill-opacity:1;fill-rule:nonzero;stroke:none"
           id="path199" />
        <g
           id="g201"
           transform="translate(303.5873,102.3345)">
          <path
             d="m 0,0 c 0.601,-4.552 3.865,-6.528 8.59,-6.528 4.552,0 7.903,1.718 7.903,5.326 0,3.264 -1.461,5.067 -6.185,6.27 L 4.467,6.443 c -7.216,1.718 -9.964,5.411 -9.964,11.252 0,8.933 7.386,11.94 14.945,11.94 8.332,0 13.487,-3.007 14.26,-10.737 l -7.559,-0.859 c -0.258,3.951 -2.663,5.755 -7.216,5.755 -4.381,0 -6.958,-1.976 -6.958,-5.326 0,-2.835 1.117,-4.639 5.412,-5.584 l 5.497,-1.287 c 7.044,-1.718 10.995,-4.983 10.995,-11.941 0,-8.504 -6.699,-11.682 -15.375,-11.682 -9.02,0 -14.259,2.749 -15.376,9.964 z"
             style="fill:#ffffff;fill-opacity:1;fill-rule:nonzero;stroke:none"
             id="path203" />
        </g>
        <g
           id="g205"
           transform="translate(340.6971,102.3345)">
          <path
             d="m 0,0 c 0.602,-4.552 3.865,-6.528 8.59,-6.528 4.553,0 7.903,1.718 7.903,5.326 0,3.264 -1.46,5.067 -6.184,6.27 L 4.467,6.443 c -7.216,1.718 -9.964,5.411 -9.964,11.252 0,8.933 7.386,11.94 14.945,11.94 8.334,0 13.487,-3.007 14.26,-10.737 l -7.559,-0.859 c -0.257,3.951 -2.663,5.755 -7.215,5.755 -4.382,0 -6.958,-1.976 -6.958,-5.326 0,-2.835 1.116,-4.639 5.411,-5.584 l 5.497,-1.287 c 7.045,-1.718 10.995,-4.983 10.995,-11.941 0,-8.504 -6.698,-11.682 -15.375,-11.682 -9.02,0 -14.259,2.749 -15.376,9.964 z"
             style="fill:#ffffff;fill-opacity:1;fill-rule:nonzero;stroke:none"
             id="path207" />
        </g>
        <g
           id="g209"
           transform="translate(379.8686,111.3537)">
          <path
             d="m 0,0 c 0,-9.964 3.522,-14.946 10.393,-14.946 6.958,0 10.481,4.982 10.481,14.946 0,9.707 -3.609,14.345 -10.481,14.345 C 3.607,14.345 0,9.707 0,0 m -7.645,0.087 c 0,13.485 7.129,20.529 18.038,20.529 10.995,0 18.126,-7.044 18.126,-20.529 0,-13.573 -7.131,-21.132 -18.126,-21.132 -10.909,0 -18.038,7.559 -18.038,21.132"
             style="fill:#ffffff;fill-opacity:1;fill-rule:nonzero;stroke:none"
             id="path211" />
        </g>
        <g
           id="g213"
           transform="translate(441.4602,98.555)">
          <path
             d="m 0,0 c -1.89,-5.841 -5.928,-8.246 -12.198,-8.246 -7.215,0 -12.025,3.694 -12.025,13.142 v 27.573 h 7.73 V 6.099 c 0,-5.841 2.233,-8.59 7.129,-8.59 4.295,0 9.193,3.865 9.193,11.51 v 23.45 h 7.73 V -7.215 H 0.944 Z"
             style="fill:#ffffff;fill-opacity:1;fill-rule:nonzero;stroke:none"
             id="path215" />
        </g>
        <g
           id="g217"
           transform="translate(483.2091,123.2081)">
          <path
             d="m 0,0 c -0.946,0.171 -2.235,0.344 -3.522,0.344 -5.585,0 -10.995,-4.381 -10.995,-12.112 v -20.101 h -7.732 V 7.816 h 6.529 l 0.945,-10.737 c 1.545,7.13 6.529,12.026 15.377,11.597 z"
             style="fill:#ffffff;fill-opacity:1;fill-rule:nonzero;stroke:none"
             id="path219" />
        </g>
        <path
           d="m 500.96,91.34 h -7.73 v 39.685 h 7.73 z m -3.952,57.551 c 3.008,0 5.412,-2.062 5.412,-5.153 0,-2.921 -2.404,-5.155 -5.412,-5.155 -2.749,0 -5.153,2.234 -5.153,5.155 0,3.091 2.404,5.153 5.153,5.153"
           style="fill:#ffffff;fill-opacity:1;fill-rule:nonzero;stroke:none"
           id="path221" />
        <g
           id="g223"
           transform="translate(227.3916,20.0576)">
          <path
             d="m 0,0 v 43.722 h -14.688 v 6.872 H 22.763 V 43.722 H 7.989 V 0 Z"
             style="fill:#ffffff;fill-opacity:1;fill-rule:nonzero;stroke:none"
             id="path225" />
        </g>
        <g
           id="g227"
           transform="translate(275.4118,43.8513)">
          <path
             d="m 0,0 c 0.086,0.602 0.086,1.117 0.086,1.632 0,5.069 -3.264,9.106 -8.59,9.106 -5.669,0 -9.277,-3.866 -10.05,-10.738 z m 0.601,-12.284 6.786,-1.803 c -1.632,-7.989 -8.332,-10.737 -15.891,-10.737 -10.566,0 -17.696,7.301 -17.696,20.53 0,13.313 7.044,21.13 18.125,21.13 10.222,0 15.72,-7.043 15.72,-16.922 0,-2.233 -0.344,-4.294 -0.773,-5.497 h -25.598 c 0.343,-7.731 3.951,-13.142 10.651,-13.142 4.381,0 7.301,1.718 8.676,6.441"
             style="fill:#ffffff;fill-opacity:1;fill-rule:nonzero;stroke:none"
             id="path229" />
        </g>
        <g
           id="g231"
           transform="translate(298.6057,52.0975)">
          <path
             d="m 0,0 c 2.148,5.928 6.701,8.59 12.714,8.59 6.527,0 12.025,-3.607 12.025,-12.283 V -32.04 h -7.731 v 26.028 c 0,4.896 -2.233,7.902 -6.957,7.902 C 5.24,1.89 0.687,-0.687 0.687,-9.277 V -32.04 h -7.73 V 7.645 h 6.099 z"
             style="fill:#ffffff;fill-opacity:1;fill-rule:nonzero;stroke:none"
             id="path233" />
        </g>
        <g
           id="g235"
           transform="translate(354.0118,37.7523)">
          <path
             d="m 0,0 c -10.651,0.258 -15.289,-2.147 -15.289,-7.129 0,-3.264 2.147,-5.755 6.356,-5.755 4.123,0 8.933,2.491 8.933,7.129 z m 7.818,-8.332 c 0,-3.006 1.374,-3.693 2.92,-3.693 0.944,0 1.631,0.171 2.233,0.429 v -6.013 c -1.116,-0.429 -2.49,-0.687 -4.209,-0.687 -4.551,0 -7.473,1.89 -8.16,6.357 -2.062,-4.983 -6.699,-6.786 -11.768,-6.786 -6.959,0 -11.855,3.951 -11.855,10.737 0,8.762 6.786,13.83 23.021,13.056 v 4.897 c 0,4.896 -2.92,6.785 -7.129,6.785 -4.295,0 -6.873,-2.232 -7.215,-6.356 l -7.388,1.117 c 0.601,8.417 7.988,11.424 15.29,11.424 7.731,0 14.26,-3.092 14.26,-12.197 z"
             style="fill:#ffffff;fill-opacity:1;fill-rule:nonzero;stroke:none"
             id="path237" />
        </g>
        <g
           id="g239"
           transform="translate(380.9013,52.0975)">
          <path
             d="m 0,0 c 2.147,5.928 6.701,8.59 12.714,8.59 6.527,0 12.025,-3.607 12.025,-12.283 V -32.04 h -7.731 v 26.028 c 0,4.896 -2.233,7.902 -6.957,7.902 C 5.24,1.89 0.687,-0.687 0.687,-9.277 V -32.04 h -7.73 V 7.645 h 6.099 z"
             style="fill:#ffffff;fill-opacity:1;fill-rule:nonzero;stroke:none"
             id="path241" />
        </g>
        <g
           id="g243"
           transform="translate(437.7684,21.3463)">
          <path
             d="m 0,0 c -2.577,-1.547 -5.928,-2.319 -9.621,-2.319 -7.13,0 -11.425,3.779 -11.425,11.166 V 32.211 H -26.8 v 6.185 h 5.754 v 8.418 l 7.816,0.946 V 38.396 H -1.462 V 32.211 H -13.315 V 10.393 c 0,-4.295 1.975,-6.099 5.24,-6.099 2.578,0 4.38,0.688 6.613,2.149 z"
             style="fill:#ffffff;fill-opacity:1;fill-rule:nonzero;stroke:none"
             id="path245" />
        </g>
        <g
           id="g247"
           transform="translate(461.0462,20.0576)">
          <path
             d="M 0,0 V 50.594 H 7.904 V 29.12 h 24.137 v 21.474 h 7.902 V 0 H 32.041 V 22.248 H 7.904 V 0 Z"
             style="fill:#ffffff;fill-opacity:1;fill-rule:nonzero;stroke:none"
             id="path249" />
        </g>
        <g
           id="g251"
           transform="translate(536.6405,43.8513)">
          <path
             d="m 0,0 c 0.086,0.602 0.086,1.117 0.086,1.632 0,5.069 -3.265,9.106 -8.591,9.106 -5.669,0 -9.276,-3.866 -10.049,-10.738 z m 0.602,-12.284 6.784,-1.803 c -1.631,-7.989 -8.332,-10.737 -15.891,-10.737 -10.565,0 -17.694,7.301 -17.694,20.53 0,13.313 7.043,21.13 18.124,21.13 10.222,0 15.72,-7.043 15.72,-16.922 0,-2.233 -0.345,-4.294 -0.773,-5.497 h -25.599 c 0.344,-7.731 3.952,-13.142 10.652,-13.142 4.38,0 7.302,1.718 8.677,6.441"
             style="fill:#ffffff;fill-opacity:1;fill-rule:nonzero;stroke:none"
             id="path253" />
        </g>
        <g
           id="g255"
           transform="translate(566.1913,20.0576)">
          <path
             d="m 0,0 c -2.062,-0.515 -3.436,-0.687 -4.81,-0.687 -4.982,0 -9.105,2.663 -9.105,8.59 V 57.38 h 7.73 V 9.535 c 0,-2.491 1.46,-3.523 3.522,-3.523 1.117,0 1.89,0.173 2.749,0.431 z"
             style="fill:#ffffff;fill-opacity:1;fill-rule:nonzero;stroke:none"
             id="path257" />
        </g>
        <g
           id="g259"
           transform="translate(581.6539,35.4337)">
          <path
             d="m 0,0 c 0,-7.645 5.153,-10.566 9.621,-10.566 5.926,0 10.822,4.811 10.822,15.291 0,9.534 -3.865,14.173 -9.964,14.173 C 4.81,18.898 0,14.688 0,7.301 Z m 0,-32.814 h -7.732 v 57.123 h 6.358 l 0.944,-7.645 c 2.318,6.442 8.16,8.59 13.142,8.59 9.706,0 15.634,-7.044 15.634,-19.842 0,-12.113 -6.185,-21.819 -17.18,-21.819 -6.099,0 -9.792,2.835 -11.166,6.271 z"
             style="fill:#ffffff;fill-opacity:1;fill-rule:nonzero;stroke:none"
             id="path261" />
        </g>
        <g
           id="g263"
           transform="translate(95.377,217.77)">
          <path
             d="M 0,0 -22.452,-19.349 V 1.397 h -51.741 l -0.101,-61.231 -18.559,-14.662 v -123.602 l 10e-4,-0.032 h 9.164 l -0.115,119.25 18.552,14.656 0.094,56.571 h 33.655 v -30.242 l 31.498,26.41 83.15,-67.235 v -110.227 l -114.28,-0.101 0.048,77.988 27.623,-42.504 h 7.471 l 26.507,42.55 0.191,-62.662 h 8.803 l 0.066,79.45 H 31.48 L 0.363,-143.819 -32.03,-94.272 h -8.095 l -0.059,-103.826 132.38,0.101 v 123.688 z"
             style="fill:#ffffff;fill-opacity:1;fill-rule:nonzero;stroke:none"
             id="path265" />
        </g>
      </g>
    </g>
  </g>
</svg>
